<svg xmlns="http://www.w3.org/2000/svg" version="1.1" xmlns:xlink="http://www.w3.org/1999/xlink" width="1500" height="1500" viewBox="0 0 1500 1500"><rect width="1500" height="1500" x="0" y="0" id="background" stroke="transparent" fill="#001f3f"></rect><svg xml:space="preserve" width="1000" height="1000" data-version="2" data-id="lg_tJmhfhOdnUKM66sQTh" viewBox="0 0 366 559" x="250" y="250"><rect width="100%" height="100%" fill="transparent"></rect><g transform="translate(183.5 280)"><filter id="a" width="140%" height="140%" x="-20%" y="-20%"><feGaussianBlur in="SourceAlpha"></feGaussianBlur><feOffset result="oBlur"></feOffset><feFlood flood-color="#465454" flood-opacity="1"></feFlood><feComposite in2="oBlur" operator="in"></feComposite><feMerge><feMergeNode></feMergeNode><feMergeNode in="SourceGraphic"></feMergeNode></feMerge></filter><g filter="url(#a)"><rect width="366" height="559.35" x="-183" y="-279.675" fill="none" rx="0" ry="0"></rect><g transform="translate(.49 -38.72)"><linearGradient id="b" x1="-.024" x2=".023" y1="0" y2="0" gradientUnits="objectBoundingBox"><stop offset="0%" stop-color="#6ee2f5"></stop><stop offset="100%" stop-color="#6454f0"></stop></linearGradient><path fill="url(#b)" d="M32.68 417.6V306.9q1.45.24 13.66 4.23 12.2 3.99 29.61 8.94 17.4 4.96 34.92 8.7 17.53 3.75 29.85 3.75 10.64 0 17.4-3.14 6.77-3.15 6.77-11.6 0-9.19-9.67-16.68-9.66-7.49-24.77-15.47T98.3 267.5t-32.14-24.41q-15.11-14.26-24.78-34.2-9.66-19.94-9.66-47.74 0-34.08 14.26-57.64 14.26-23.57 38.31-37.95 24.04-14.38 54.14-20.9 30.09-6.53 61.75-6.53 26.83 0 50.76 2.9t40.48 6.28q16.56 3.39 20.91 4.6v110.94l-10.03-2.18q-10.03-2.17-25.14-4.83T245.98 151q-16.07-2.17-28.16-2.17-11.11 0-16.67 3.86-5.56 3.87-5.56 9.19 0 4.35 4.83 9.55 4.84 5.19 11.6 8.09 25.38 11.12 47.86 22.72t39.64 26.83 26.95 37.1q9.79 21.88 9.79 53.54 0 37.7-18.98 65.74-18.97 28.04-54.62 43.51t-85.92 15.47q-43.27 0-71.31-4.11-28.03-4.11-43.99-9.31-15.95-5.2-22.35-9.3z" paint-order="stroke" transform="translate(-183.99 -241.28)"></path></g></g></g></svg></svg>